<svg width="350pt" height="188pt" viewBox="0.00 0.00 350.00 188.00" xmlns="http://www.w3.org/2000/svg" xmlns:xlink="http://www.w3.org/1999/xlink">
<g id="graph1" class="graph" transform="scale(1 1) rotate(0) translate(4 184)">
<title>G</title>
<polygon fill="white" stroke="white" points="-4,5 -4,-184 347,-184 347,5 -4,5"></polygon>
<!-- &#45; -->
<g id="node1" class="node"><title>-</title>
<ellipse fill="none" stroke="black" cx="135" cy="-162" rx="27" ry="18"></ellipse>
<text text-anchor="middle" x="135" y="-157.8" font-family="Times,serif" font-size="14.00">-</text>
</g>
<!--  *  -->
<g id="node3" class="node"><title> * </title>
<ellipse fill="none" stroke="black" cx="99" cy="-90" rx="27" ry="18"></ellipse>
<text text-anchor="middle" x="99" y="-85.8" font-family="Times,serif" font-size="14.00"> * </text>
</g>
<!-- &#45;&#45;&gt; *  -->
<g id="edge2" class="edge"><title>--&gt; * </title>
<path fill="none" stroke="black" d="M126.65,-144.765C122.288,-136.283 116.853,-125.714 111.959,-116.197"></path>
<polygon fill="black" stroke="black" points="114.99,-114.439 107.304,-107.147 108.765,-117.641 114.99,-114.439"></polygon>
</g>
<!-- * -->
<g id="node9" class="node"><title>*</title>
<ellipse fill="none" stroke="black" cx="207" cy="-90" rx="27" ry="18"></ellipse>
<text text-anchor="middle" x="207" y="-85.8" font-family="Times,serif" font-size="14.00">*</text>
</g>
<!-- &#45;&#45;&gt;* -->
<g id="edge8" class="edge"><title>--&gt;*</title>
<path fill="none" stroke="black" d="M149.57,-146.834C159.75,-136.938 173.524,-123.546 185.031,-112.359"></path>
<polygon fill="black" stroke="black" points="187.474,-114.865 192.204,-105.385 182.595,-109.846 187.474,-114.865"></polygon>
</g>
<!-- b -->
<g id="node5" class="node"><title>b</title>
<ellipse fill="none" stroke="black" cx="27" cy="-18" rx="27" ry="18"></ellipse>
<text text-anchor="middle" x="27" y="-13.8" font-family="Times,serif" font-size="14.00">b</text>
</g>
<!--  * &#45;&gt;b -->
<g id="edge4" class="edge"><title> * -&gt;b</title>
<path fill="none" stroke="black" d="M84.4297,-74.8345C74.2501,-64.9376 60.4761,-51.5462 48.9694,-40.3591"></path>
<polygon fill="black" stroke="black" points="51.4055,-37.8461 41.7957,-33.3847 46.5259,-42.865 51.4055,-37.8461"></polygon>
</g>
<!--  b  -->
<g id="node7" class="node"><title> b </title>
<ellipse fill="none" stroke="black" cx="99" cy="-18" rx="27" ry="18"></ellipse>
<text text-anchor="middle" x="99" y="-13.8" font-family="Times,serif" font-size="14.00"> b </text>
</g>
<!--  * &#45;&gt; b  -->
<g id="edge6" class="edge"><title> * -&gt; b </title>
<path fill="none" stroke="black" d="M99,-71.6966C99,-63.9827 99,-54.7125 99,-46.1124"></path>
<polygon fill="black" stroke="black" points="102.5,-46.1043 99,-36.1043 95.5001,-46.1044 102.5,-46.1043"></polygon>
</g>
<!-- 4 -->
<g id="node11" class="node"><title>4</title>
<ellipse fill="none" stroke="black" cx="171" cy="-18" rx="27" ry="18"></ellipse>
<text text-anchor="middle" x="171" y="-13.8" font-family="Times,serif" font-size="14.00">4</text>
</g>
<!-- *&#45;&gt;4 -->
<g id="edge10" class="edge"><title>*-&gt;4</title>
<path fill="none" stroke="black" d="M198.65,-72.7646C194.288,-64.2831 188.853,-53.7144 183.959,-44.1974"></path>
<polygon fill="black" stroke="black" points="186.99,-42.4395 179.304,-35.1473 180.765,-45.6409 186.99,-42.4395"></polygon>
</g>
<!-- a -->
<g id="node13" class="node"><title>a</title>
<ellipse fill="none" stroke="black" cx="243" cy="-18" rx="27" ry="18"></ellipse>
<text text-anchor="middle" x="243" y="-13.8" font-family="Times,serif" font-size="14.00">a</text>
</g>
<!-- *&#45;&gt;a -->
<g id="edge12" class="edge"><title>*-&gt;a</title>
<path fill="none" stroke="black" d="M215.35,-72.7646C219.712,-64.2831 225.147,-53.7144 230.041,-44.1974"></path>
<polygon fill="black" stroke="black" points="233.235,-45.6409 234.696,-35.1473 227.01,-42.4395 233.235,-45.6409"></polygon>
</g>
<!-- c -->
<g id="node15" class="node"><title>c</title>
<ellipse fill="none" stroke="black" cx="315" cy="-18" rx="27" ry="18"></ellipse>
<text text-anchor="middle" x="315" y="-13.8" font-family="Times,serif" font-size="14.00">c</text>
</g>
<!-- *&#45;&gt;c -->
<g id="edge14" class="edge"><title>*-&gt;c</title>
<path fill="none" stroke="black" d="M225.812,-76.8069C243.002,-65.6653 268.618,-49.0622 287.993,-36.5043"></path>
<polygon fill="black" stroke="black" points="289.916,-39.4294 296.403,-31.0533 286.108,-33.5553 289.916,-39.4294"></polygon>
</g>
</g>
</svg>